<mxfile host="drawio-plugin" modified="2022-12-26T23:20:31.062Z" agent="5.0 (Windows NT 6.2; Win64; x64) AppleWebKit/537.36 (KHTML, like Gecko) Chrome/89.0.4389.114 Safari/537.36" version="20.5.3" etag="mjKTi7XoZxtqyHdFAYWW" type="embed"><diagram id="TvCcqFFoGi64urCbkY0v" name="Page-1"><mxGraphModel dx="1724" dy="876" grid="1" gridSize="10" guides="1" tooltips="1" connect="1" arrows="1" fold="1" page="1" pageScale="1" pageWidth="850" pageHeight="1100" math="0" shadow="0"><root><mxCell id="0"/><mxCell id="1" parent="0"/><mxCell id="6" value="" style="verticalLabelPosition=bottom;verticalAlign=top;html=1;shape=mxgraph.basic.patternFillRect;fillStyle=diagRev;step=5;fillStrokeWidth=0.2;fillStrokeColor=#dddddd;rounded=1;fillColor=#dae8fc;strokeColor=#6c8ebf;opacity=70;dashed=1;strokeWidth=2;movable=1;resizable=1;rotatable=1;deletable=1;editable=1;connectable=1;" vertex="1" parent="1"><mxGeometry x="330" y="10" width="990" height="830" as="geometry"/></mxCell><mxCell id="30" style="edgeStyle=orthogonalEdgeStyle;rounded=1;orthogonalLoop=1;jettySize=auto;html=1;entryX=0;entryY=0.5;entryDx=0;entryDy=0;strokeWidth=1;targetPerimeterSpacing=0;sourcePerimeterSpacing=0;endSize=6;jumpSize=6;jumpStyle=none;" edge="1" parent="1" source="5" target="10"><mxGeometry relative="1" as="geometry"/></mxCell><mxCell id="33" style="edgeStyle=orthogonalEdgeStyle;rounded=1;orthogonalLoop=1;jettySize=auto;html=1;entryX=0;entryY=0.5;entryDx=0;entryDy=0;strokeWidth=1;targetPerimeterSpacing=6;sourcePerimeterSpacing=6;" edge="1" parent="1" source="5" target="21"><mxGeometry relative="1" as="geometry"/></mxCell><mxCell id="41" style="edgeStyle=orthogonalEdgeStyle;rounded=1;jumpStyle=none;jumpSize=6;orthogonalLoop=1;jettySize=auto;html=1;entryX=0;entryY=0.5;entryDx=0;entryDy=0;strokeWidth=1;endSize=6;sourcePerimeterSpacing=0;targetPerimeterSpacing=0;" edge="1" parent="1" source="5" target="13"><mxGeometry relative="1" as="geometry"/></mxCell><mxCell id="42" style="edgeStyle=orthogonalEdgeStyle;rounded=1;jumpStyle=none;jumpSize=6;orthogonalLoop=1;jettySize=auto;html=1;strokeWidth=1;endSize=6;sourcePerimeterSpacing=0;targetPerimeterSpacing=0;" edge="1" parent="1" source="5" target="14"><mxGeometry relative="1" as="geometry"/></mxCell><mxCell id="53" style="edgeStyle=elbowEdgeStyle;rounded=1;jumpStyle=none;jumpSize=6;orthogonalLoop=1;jettySize=auto;html=1;entryX=0.015;entryY=0.6;entryDx=0;entryDy=0;entryPerimeter=0;labelBackgroundColor=none;strokeWidth=1;endSize=6;sourcePerimeterSpacing=0;targetPerimeterSpacing=0;" edge="1" parent="1" source="5" target="51"><mxGeometry relative="1" as="geometry"/></mxCell><mxCell id="5" value="User" style="verticalLabelPosition=bottom;html=1;verticalAlign=top;align=center;strokeColor=none;fillColor=#00BEF2;shape=mxgraph.azure.user;rounded=1;" vertex="1" parent="1"><mxGeometry x="210" y="400" width="47.5" height="50" as="geometry"/></mxCell><mxCell id="7" value="&lt;h2&gt;Manhwa Nexus&lt;/h2&gt;" style="text;html=1;align=center;verticalAlign=middle;resizable=0;points=[];autosize=1;strokeColor=none;fillColor=none;" vertex="1" parent="1"><mxGeometry x="330" y="10" width="150" height="60" as="geometry"/></mxCell><mxCell id="13" value="&lt;h3&gt;Track Manhwa&lt;/h3&gt;" style="rounded=1;whiteSpace=wrap;html=1;strokeWidth=1;fillColor=#1ba1e2;fontColor=#ffffff;strokeColor=#006EAF;" vertex="1" parent="1"><mxGeometry x="665" y="280" width="130" height="70" as="geometry"/></mxCell><mxCell id="14" value="&lt;h3&gt;Rate / Review Manhwa&lt;/h3&gt;" style="rounded=1;whiteSpace=wrap;html=1;strokeWidth=1;fillColor=#1ba1e2;fontColor=#ffffff;strokeColor=#006EAF;" vertex="1" parent="1"><mxGeometry x="665" y="390" width="130" height="70" as="geometry"/></mxCell><mxCell id="21" value="&lt;h3&gt;Search Manhwa&lt;/h3&gt;" style="rounded=1;whiteSpace=wrap;html=1;strokeWidth=1;fillColor=#1ba1e2;fontColor=#ffffff;strokeColor=#006EAF;" vertex="1" parent="1"><mxGeometry x="665" y="500" width="130" height="70" as="geometry"/></mxCell><mxCell id="10" value="&lt;h3&gt;Browse Manhwa&lt;/h3&gt;" style="rounded=1;whiteSpace=wrap;html=1;strokeWidth=1;fillColor=#1ba1e2;fontColor=#ffffff;strokeColor=#006EAF;" vertex="1" parent="1"><mxGeometry x="665" y="170" width="130" height="70" as="geometry"/></mxCell><mxCell id="36" value="&lt;h3&gt;Manage Manhwa&lt;/h3&gt;" style="rounded=1;whiteSpace=wrap;html=1;strokeWidth=1;fillColor=#1ba1e2;fontColor=#ffffff;strokeColor=#006EAF;" vertex="1" parent="1"><mxGeometry x="900" y="280" width="130" height="70" as="geometry"/></mxCell><mxCell id="40" style="edgeStyle=orthogonalEdgeStyle;rounded=1;orthogonalLoop=1;jettySize=auto;html=1;entryX=1;entryY=0.5;entryDx=0;entryDy=0;" edge="1" parent="1" source="38" target="36"><mxGeometry relative="1" as="geometry"/></mxCell><mxCell id="46" style="edgeStyle=orthogonalEdgeStyle;rounded=1;jumpStyle=none;jumpSize=6;orthogonalLoop=1;jettySize=auto;html=1;entryX=1;entryY=0.5;entryDx=0;entryDy=0;strokeWidth=1;endSize=6;sourcePerimeterSpacing=0;targetPerimeterSpacing=0;" edge="1" parent="1" source="38" target="44"><mxGeometry relative="1" as="geometry"/></mxCell><mxCell id="47" style="edgeStyle=orthogonalEdgeStyle;rounded=1;jumpStyle=none;jumpSize=6;orthogonalLoop=1;jettySize=auto;html=1;entryX=1;entryY=0.5;entryDx=0;entryDy=0;strokeWidth=1;endSize=6;sourcePerimeterSpacing=0;targetPerimeterSpacing=0;" edge="1" parent="1" source="38" target="45"><mxGeometry relative="1" as="geometry"/></mxCell><mxCell id="38" value="Administrator" style="verticalLabelPosition=bottom;html=1;verticalAlign=top;align=center;strokeColor=none;fillColor=#00BEF2;shape=mxgraph.azure.user;rounded=1;strokeWidth=1;flipH=1;" vertex="1" parent="1"><mxGeometry x="1390" y="400" width="47.5" height="50" as="geometry"/></mxCell><mxCell id="44" value="&lt;h3&gt;Manage Users&lt;/h3&gt;" style="rounded=1;whiteSpace=wrap;html=1;strokeWidth=1;fillColor=#1ba1e2;fontColor=#ffffff;strokeColor=#006EAF;" vertex="1" parent="1"><mxGeometry x="900" y="390" width="130" height="70" as="geometry"/></mxCell><mxCell id="45" value="&lt;h3&gt;Approve requests for Manhwa&lt;/h3&gt;" style="rounded=1;whiteSpace=wrap;html=1;strokeWidth=1;fillColor=#1ba1e2;fontColor=#ffffff;strokeColor=#006EAF;" vertex="1" parent="1"><mxGeometry x="900" y="500" width="130" height="70" as="geometry"/></mxCell><mxCell id="51" value="&lt;h3&gt;Request Manhwa&lt;/h3&gt;" style="rounded=1;whiteSpace=wrap;html=1;strokeWidth=1;fillColor=#1ba1e2;fontColor=#ffffff;strokeColor=#006EAF;" vertex="1" parent="1"><mxGeometry x="665" y="610" width="130" height="70" as="geometry"/></mxCell></root></mxGraphModel></diagram></mxfile>